<!-- favicon.svg - Steppy Sprout -->
<svg xmlns="http://www.w3.org/2000/svg" viewBox="0 0 512 512">
  <defs>
    <linearGradient id="bg" x1="0" y1="0" x2="512" y2="512" gradientUnits="userSpaceOnUse">
      <stop offset="0%" stop-color="#F97316"/>
      <stop offset="45%" stop-color="#FB7185"/>
      <stop offset="100%" stop-color="#F9A8D4"/>
    </linearGradient>
  </defs>

  <!-- Background -->
  <rect x="0" y="0" width="512" height="512" rx="120" fill="url(#bg)"/>

  <!-- Seed body -->
  <path d="M200 330 Q182 280 200 248 Q218 220 256 216 Q294 220 312 248 Q330 280 312 330 Q304 355 290 365 Q275 376 256 378 Q237 376 222 365 Q208 355 200 330Z" fill="#E8C97A"/>

  <!-- Stem -->
  <path d="M256 216 Q254 175 256 138" stroke="#2D9D5E" stroke-width="12" stroke-linecap="round" fill="none"/>

  <!-- Left leaf -->
  <path d="M256 180 Q210 148 218 112 Q242 130 256 172" fill="#2D9D5E"/>

  <!-- Right leaf -->
  <path d="M256 160 Q302 128 296 92 Q272 110 256 152" fill="#5FBF84"/>

  <!-- Eyes -->
  <circle cx="236" cy="290" r="16" fill="#1a2e1a"/>
  <circle cx="276" cy="290" r="16" fill="#1a2e1a"/>
  <circle cx="241" cy="285" r="6" fill="white"/>
  <circle cx="281" cy="285" r="6" fill="white"/>

  <!-- Smile -->
  <path d="M240 316 Q256 332 272 316" fill="none" stroke="#1a2e1a" stroke-width="6" stroke-linecap="round"/>

  <!-- Feet -->
  <ellipse cx="240" cy="376" rx="18" ry="10" fill="#C4956A"/>
  <ellipse cx="272" cy="376" rx="18" ry="10" fill="#C4956A"/>
</svg>
